<?xml version="1.0" encoding="UTF-8"?>
<svg id="_图层_1" data-name="图层 1" xmlns="http://www.w3.org/2000/svg" xmlns:xlink="http://www.w3.org/1999/xlink" viewBox="0 0 200 200">
  <defs>
    <style>
      .cls-1 {
        fill: url(#_未命名的渐变_2);
        stroke-width: 0px;
      }
    </style>
    <linearGradient id="_未命名的渐变_2" data-name="未命名的渐变 2" x1="100" y1="1.45" x2="100" y2="201.45" gradientUnits="userSpaceOnUse">
      <stop offset="0" stop-color="#04a6ff"/>
      <stop offset="1" stop-color="#176cfe"/>
    </linearGradient>
  </defs>
  <path class="cls-1" d="M123,0h-46C34.47,0,0,34.47,0,77v46c0,42.53,34.47,77,77,77h46c42.53,0,77-34.47,77-77v-46C200,34.47,165.53,0,123,0ZM162.7,130.74c-11.2,15.63-29.24,26.23-49.53,29.14-4.57.66-9.27.91-13.96.77-18.02-.55-49.27-13.03-61.44-45.27-10.08-26.69-2.33-52.96,1.63-59.5,3.41-5.67,9.11-9.32,16.05-10.31,9.17-1.32,18.9,2.44,24.21,9.34,5.08,6.61,5.77,15.14,1.96,24.02-4.14,9.67-2.99,22,2.97,32.19,6.24,10.64,16.54,17.24,29.01,18.54,2.31.25,4.83.19,7.29-.16,6.1-.88,14.89-3.99,22.02-13.82,6.22-8.58,5.45-18.33,1.91-24.21-1.77-2.95-5.91-7.72-13.67-6.6-1.02.15-2.08.39-3.17.73-5.52,1.79-9.16,4.45-10.79,7.93-2.13,4.55-.39,9.43-.36,9.48.9,2.26.18,4.83-1.74,6.31-.75.57-1.63.93-2.52,1.06-1.39.2-2.85-.15-4.02-1.02-.49-.37-11.84-9.09-9.62-25.11,1.8-12.98,14.23-23.63,30.19-25.92,17.97-2.58,38.33,6.82,43.34,33.61,2.41,12.89-1.07,26.69-9.75,38.8Z"/>
</svg>